<?xml version="1.0" standalone="no"?>
<!DOCTYPE svg PUBLIC "-//W3C//DTD SVG 20010904//EN"
        "http://www.w3.org/TR/2001/REC-SVG-20010904/DTD/svg10.dtd">
<svg version="1.0" xmlns="http://www.w3.org/2000/svg"
     width="384.000000pt" height="384.000000pt" viewBox="0 0 384.000000 384.000000"
     preserveAspectRatio="xMidYMid meet">
    <metadata>
        Created by potrace 1.11, written by Peter Selinger 2001-2013
    </metadata>
    <g transform="translate(0.000000,384.000000) scale(0.100000,-0.100000)"
       fill="#000000" stroke="none">
        <path d="M1671 3824 c-255 -35 -533 -132 -744 -262 l-67 -42 -270 0 -270 0 0
-270 0 -271 -35 -55 c-84 -131 -211 -434 -228 -543 -3 -16 -7 -34 -10 -38 -3
-5 -8 -27 -11 -49 -4 -22 -9 -51 -11 -64 -21 -103 -27 -410 -12 -540 30 -250
133 -547 265 -763 l42 -67 0 -270 0 -270 270 0 270 0 65 -40 c228 -140 526
-243 775 -268 85 -8 368 -8 445 1 253 28 539 127 761 262 l75 45 269 0 270 0
0 274 c0 252 1 275 19 297 29 38 108 188 152 290 44 103 100 288 115 379 2 14
6 35 9 46 19 86 27 442 12 544 -45 302 -127 536 -266 763 l-41 67 0 270 0 270
-270 0 -270 0 -65 40 c-219 134 -500 234 -747 265 -101 13 -396 12 -497 -1z
m474 -319 c17 -3 66 -13 110 -21 92 -19 248 -71 344 -116 77 -36 214 -118 219
-130 2 -4 9 -8 17 -8 7 0 18 -7 25 -15 10 -12 43 -15 176 -15 l164 0 0 -160 0
-160 48 -72 c72 -108 110 -180 157 -297 33 -85 82 -247 77 -258 0 -2 4 -17 9
-35 30 -103 33 -421 5 -568 -44 -235 -121 -427 -248 -618 l-48 -72 0 -160 0
-160 -162 0 c-154 0 -163 -1 -192 -23 -71 -54 -227 -140 -331 -183 -50 -20
-187 -62 -240 -74 -22 -4 -51 -11 -65 -14 -84 -20 -363 -28 -480 -14 -234 28
-483 119 -682 250 l-89 58 -159 0 -160 0 0 160 0 160 -51 75 c-133 198 -219
426 -257 679 -13 94 -5 457 12 485 2 3 7 23 10 43 26 162 124 398 237 566 l49
72 0 160 0 160 160 0 161 0 72 49 c156 105 360 194 532 231 22 4 51 11 65 14
14 4 52 9 85 12 33 3 62 8 64 10 6 5 333 -4 366 -11z"/>
        <path d="M810 2714 c0 -3 26 -31 58 -62 31 -32 65 -67 75 -78 14 -17 100 -363
131 -529 2 -11 11 -50 20 -86 8 -37 18 -79 21 -93 10 -52 15 -73 40 -186 15
-63 35 -153 45 -200 10 -47 29 -128 41 -180 35 -157 29 -186 -55 -273 -31 -31
-56 -59 -56 -62 0 -3 142 -5 315 -5 l315 0 -37 74 -37 74 115 321 c63 177 116
321 119 321 3 0 31 -76 64 -168 32 -92 63 -178 69 -192 5 -14 11 -29 13 -35 1
-5 21 -63 45 -129 l42 -118 -36 -74 -37 -74 315 0 c173 0 315 2 315 5 0 3 -27
33 -60 67 -47 47 -62 71 -67 102 -10 53 -10 49 27 211 17 77 33 149 36 160 10
51 107 489 124 560 10 44 37 166 61 270 23 105 45 200 49 211 5 12 43 56 84
98 l76 76 -320 0 -319 0 34 -72 c19 -40 35 -85 35 -100 0 -25 -176 -748 -184
-756 -2 -1 -25 53 -50 120 -26 68 -52 132 -57 143 -5 11 -54 137 -109 280 -56
143 -107 274 -115 290 -7 17 -17 42 -20 58 -7 26 -25 38 -25 16 0 -6 -6 -25
-14 -42 -8 -18 -28 -70 -46 -117 -17 -47 -36 -94 -41 -105 -5 -11 -18 -45 -29
-75 -11 -30 -25 -64 -29 -75 -5 -11 -17 -42 -27 -70 -10 -27 -24 -61 -31 -75
-7 -14 -13 -32 -13 -41 0 -8 -4 -19 -8 -25 -5 -5 -25 -54 -46 -109 -21 -55
-46 -118 -55 -139 l-18 -39 -91 366 c-51 202 -92 379 -92 395 0 15 16 60 35
100 l34 72 -314 0 c-173 0 -315 -2 -315 -6z"/>
    </g>
</svg>
